<svg xmlns="http://www.w3.org/2000/svg" viewBox="0 0 740 200"><defs><style>.cls-1{fill:#fff;}</style></defs><title>EmiliaLand_logo</title><g id="Livello_1" data-name="Livello 1"><path class="cls-1" d="M149.45,119.8a33.64,33.64,0,1,0-33.64-33.64A33.68,33.68,0,0,0,149.45,119.8Zm0-52.72a19.08,19.08,0,1,1-19.08,19.08A19.1,19.1,0,0,1,149.45,67.08Z"/><path class="cls-1" d="M363.88,125.6h0a6.11,6.11,0,0,1-12.21,0h-.07V112a20,20,0,0,0-34.7-13.63A20,20,0,0,0,282.21,112v15.19H293V112a9.27,9.27,0,0,1,18.54-.07s0,0,0,.07v15.19h10.78V111.89a9.27,9.27,0,0,1,18.53.07V125.6h.08a16.88,16.88,0,1,0,33.75,0V91.91H363.88Z"/><path class="cls-1" d="M405,125.6h0a6.11,6.11,0,0,1-12.21,0h0V69.3H382.05v56.3a16.88,16.88,0,1,0,33.75,0V92.05H405Z"/><path class="cls-1" d="M462.38,97.14a24.89,24.89,0,1,0,0,37.3v4.8h10.79V92.05H462.38ZM446,129.91a14.12,14.12,0,1,1,14.12-14.12A14.14,14.14,0,0,1,446,129.91Z"/><path class="cls-1" d="M258.12,131.27A14.12,14.12,0,0,1,258,103h16.1V92.25H258a6.1,6.1,0,0,1,.14-12.19h21.25V69.3H258.12a16.89,16.89,0,0,0-16.88,16.87,16.69,16.69,0,0,0,3.42,10.07A24.87,24.87,0,0,0,258.12,142h64.17V131.26H258.12Z"/><path class="cls-1" d="M369.27,71.92a6.82,6.82,0,1,0,6.82,6.82A6.82,6.82,0,0,0,369.27,71.92Z"/><path class="cls-1" d="M410.42,71.92a6.82,6.82,0,1,0,6.82,6.82A6.82,6.82,0,0,0,410.42,71.92Z"/><path class="cls-1" d="M657.82,72.33V97.14a24.89,24.89,0,1,0,0,37.3v4.8h10.8V72.33ZM641.4,129.91a14.12,14.12,0,1,1,14.11-14.12A14.14,14.14,0,0,1,641.4,129.91Z"/><path class="cls-1" d="M591.72,91.91a20.07,20.07,0,0,0-20,20V125.6h0a6.11,6.11,0,0,1-12.21,0V92.05h-10.8v5.09a24.86,24.86,0,0,0-39.29,28.46h0a6.11,6.11,0,0,1-12.21,0h0V69.3h-10.8v56.3A16.84,16.84,0,0,0,517,135.37a24.75,24.75,0,0,0,33.43-2.57,16.84,16.84,0,0,0,32.08-7.2V112h0A9.27,9.27,0,0,1,601,112h0v27.28h10.78V112A20.07,20.07,0,0,0,591.72,91.91Zm-59.46,38a14.12,14.12,0,1,1,14.12-14.12A14.14,14.14,0,0,1,532.26,129.91Z"/><path class="cls-1" d="M149.45,132.92a47.24,47.24,0,0,1-32.82-13.18L97.68,100l-26.3,41h17.3L100,123.42l6.26,6.52.2.19a62,62,0,0,0,86,0l-10.1-10.49A47.24,47.24,0,0,1,149.45,132.92Z"/></g></svg>